# xmcd
#
# Track frame offsets:
#	150
#	20167
#	36585
#	48685
#	63275
#	77190
#	88007
#	100805
#	115445
#	129240
#	145957
#	158880
#	176032
#	187562
#	198450
#	212980
#	228132
#	244062
#	257087
#	270367
#	290582
#	304660
#	323162
#
# Disc length: 4559 seconds
#
# Revision: 2
# Processed by: cddbd v1.5.1PL0 Copyright (c) Steve Scherf et al.
# Submitted via: MusicWizard 7.0.2
#
DISCID=4e11cd17
DTITLE=Various Artist - Heartchaes And Highways - Vol. 2
DYEAR=2000
DGENRE=Country
TTITLE0=Alison Kraus - Dreaming My Dream With You
TTITLE1=Buddy Miller - Love Match
TTITLE2=Stacey Earle - Promise You Anything
TTITLE3=Rhonda Vincent - Jolene
TTITLE4=Keith Whitley - Sad Songs And Walzes
TTITLE5=Audrey - I'ld Leave Me Too
TTITLE6=John Prine - 'til A Tear Becomes A Rose
TTITLE7=Kevin Welch - Somethin 'bout You
TTITLE8=Kieran Kane - Four Questions
TTITLE9=The Relevators - True Love Travels On A Gravel Road
TTITLE10=Jesse Winchester - Wander My Way Home
TTITLE11=Teddy Morgan and The Pistolas - Nothing To Go Back To
TTITLE12=Dale Watson And His Lone Stars - Roadtrain
TTITLE13=Billy Swan - Wooden Heart
TTITLE14=Heather Miles - No One Is Gonna Love You Better
TTITLE15=Ricky Van Shelton - All I Have To Offer You Is Me
TTITLE16=Katie Moffatt - Stoned At The Jukebox
TTITLE17=Paul Wookey - Roll Along
TTITLE18=Willie Nelson Et Al - Honky Tonk Heroes
TTITLE19=Guy Clark - Fort Worth Blues
TTITLE20=Jimmie Dale Gilmore - No Lonesome Tune
TTITLE21=Julie Miller - Ride The Wind Like Me
TTITLE22=Joe Ely - All Just To Get To You
EXTD=
EXTT0=
EXTT1=
EXTT2=
EXTT3=
EXTT4=
EXTT5=
EXTT6=
EXTT7=
EXTT8=
EXTT9=
EXTT10=
EXTT11=
EXTT12=
EXTT13=
EXTT14=
EXTT15=
EXTT16=
EXTT17=
EXTT18=
EXTT19=
EXTT20=
EXTT21=
EXTT22=
PLAYORDER=
